<svg width="20" height="20" viewBox="0 0 20 20" fill="none" xmlns="http://www.w3.org/2000/svg">
<path d="M10 0C8.02219 0 6.08879 0.586489 4.4443 1.6853C2.79981 2.78412 1.51809 4.3459 0.761209 6.17316C0.00433291 8.00042 -0.193701 10.0111 0.192152 11.9509C0.578004 13.8907 1.53041 15.6725 2.92894 17.0711C4.32746 18.4696 6.10929 19.422 8.0491 19.8078C9.98891 20.1937 11.9996 19.9957 13.8268 19.2388C15.6541 18.4819 17.2159 17.2002 18.3147 15.5557C19.4135 13.9112 20 11.9778 20 10C19.9969 7.34879 18.9423 4.80707 17.0676 2.93239C15.1929 1.0577 12.6512 0.0031277 10 0ZM13.8564 12.5718C13.9432 12.6557 14.0125 12.756 14.0601 12.8669C14.1077 12.9778 14.1328 13.0971 14.1339 13.2178C14.1349 13.3385 14.1119 13.4582 14.0662 13.57C14.0205 13.6817 13.953 13.7832 13.8676 13.8685C13.7823 13.9539 13.6808 14.0214 13.5691 14.0671C13.4573 14.1128 13.3376 14.1358 13.2169 14.1348C13.0962 14.1337 12.9769 14.1086 12.866 14.061C12.7551 14.0134 12.6548 13.9441 12.5709 13.8573L10 11.2855L7.42909 13.8573C7.25764 14.0229 7.028 14.1145 6.78964 14.1124C6.55128 14.1104 6.32327 14.0147 6.15471 13.8462C5.98616 13.6776 5.89055 13.4496 5.88848 13.2113C5.88641 12.9729 5.97804 12.7433 6.14364 12.5718L8.71455 10L6.14364 7.42818C6.05681 7.34432 5.98756 7.24401 5.93991 7.13309C5.89227 7.02218 5.86719 6.90289 5.86614 6.78218C5.86509 6.66147 5.88809 6.54176 5.9338 6.43004C5.97951 6.31832 6.04702 6.21681 6.13237 6.13146C6.21773 6.0461 6.31923 5.9786 6.43095 5.93289C6.54268 5.88718 6.66239 5.86418 6.7831 5.86523C6.9038 5.86627 7.0231 5.89135 7.13401 5.939C7.24492 5.98664 7.34523 6.0559 7.42909 6.14273L10 8.71454L12.5709 6.14273C12.6548 6.0559 12.7551 5.98664 12.866 5.939C12.9769 5.89135 13.0962 5.86627 13.2169 5.86523C13.3376 5.86418 13.4573 5.88718 13.5691 5.93289C13.6808 5.9786 13.7823 6.0461 13.8676 6.13146C13.953 6.21681 14.0205 6.31832 14.0662 6.43004C14.1119 6.54176 14.1349 6.66147 14.1339 6.78218C14.1328 6.90289 14.1077 7.02218 14.0601 7.13309C14.0125 7.24401 13.9432 7.34432 13.8564 7.42818L11.2855 10L13.8564 12.5718Z" fill="#B7BED4"/>
<path d="M13.8555 12.5718C13.9423 12.6557 14.0116 12.756 14.0592 12.8669C14.1069 12.9778 14.1319 13.0971 14.133 13.2178C14.134 13.3385 14.111 13.4582 14.0653 13.57C14.0196 13.6817 13.9521 13.7832 13.8668 13.8686C13.7814 13.9539 13.6799 14.0214 13.5682 14.0671C13.4565 14.1128 13.3367 14.1358 13.216 14.1348C13.0953 14.1337 12.976 14.1087 12.8651 14.061C12.7542 14.0134 12.6539 13.9441 12.57 13.8573L9.99913 11.2855L7.42822 13.8573C7.25677 14.0229 7.02713 14.1145 6.78877 14.1124C6.55041 14.1104 6.3224 14.0148 6.15384 13.8462C5.98529 13.6777 5.88968 13.4496 5.88761 13.2113C5.88554 12.9729 5.97717 12.7433 6.14277 12.5718L8.71368 10L6.14277 7.42819C6.05594 7.34433 5.98669 7.24402 5.93904 7.13311C5.8914 7.02219 5.86632 6.9029 5.86527 6.78219C5.86422 6.66149 5.88722 6.54178 5.93293 6.43005C5.97864 6.31833 6.04614 6.21683 6.1315 6.13147C6.21686 6.04611 6.31836 5.97861 6.43008 5.9329C6.54181 5.88719 6.66152 5.86419 6.78222 5.86524C6.90293 5.86629 7.02222 5.89137 7.13314 5.93901C7.24405 5.98665 7.34436 6.05591 7.42822 6.14274L9.99913 8.71456L12.57 6.14274C12.6539 6.05591 12.7542 5.98665 12.8651 5.93901C12.976 5.89137 13.0953 5.86629 13.216 5.86524C13.3367 5.86419 13.4565 5.88719 13.5682 5.9329C13.6799 5.97861 13.7814 6.04611 13.8668 6.13147C13.9521 6.21683 14.0196 6.31833 14.0653 6.43005C14.111 6.54178 14.134 6.66149 14.133 6.78219C14.1319 6.9029 14.1069 7.02219 14.0592 7.13311C14.0116 7.24402 13.9423 7.34433 13.8555 7.42819L11.2846 10L13.8555 12.5718Z" fill="white"/>
</svg>
