<svg width="36" height="46" viewBox="0 0 36 46" fill="none" xmlns="http://www.w3.org/2000/svg">
<path opacity="0.4" fill-rule="evenodd" clip-rule="evenodd" d="M32.6862 0L0 4.40179V41.3738L32.6862 46V0Z" fill="#30D074"/>
<path fill-rule="evenodd" clip-rule="evenodd" d="M2.73975 2.12423L35.4259 6.11837V39.6797L2.73975 43.8795V2.12423Z" fill="#30D074"/>
<path d="M11.3452 15.7185L7.84473 18.7067L8.18505 19.0433L16.9288 19.3985V30.0159L17.2168 30.2815L19.6776 30.0683L19.9394 29.7654V16.6722L19.6776 16.3693L11.3452 15.7185ZM26.1325 23.6171L24.6441 25.502L26.0166 27.1587L22.6021 27.3494L30.2239 17.6633V17.2519L20.8743 16.5263L20.62 16.7844V24.7914L20.7509 24.9298L23.9335 21.0777L22.2319 18.9722L26.1325 19.1629L20.62 25.7787V29.7093L20.8743 29.9673L30.2239 29.1633L30.3211 29.0286L26.1325 23.6171Z" fill="white"/>
</svg>
